# xmcd CD database file
#
# Track frame offsets:
#	150
#	22080
#	41107
#	64532
#	83755
#	106835
#	122385
#	150052
#	168795
#	186815
#
# Disc length: 2736 seconds
#
# Revision: 7
# Processed by: cddbd v1.5.2PL0 Copyright (c) Steve Scherf et al.
# Submitted via: CDex 1.70beta2
#
DISCID=690aae0a
DTITLE=מאיר אריאל - זרעי קיץ
DYEAR=1993
DGENRE=Folklore
TTITLE0=זרעי קיץ
TTITLE1=לא תתפוס אותי
TTITLE2=קוצים א'
TTITLE3=דומם עם זוג נאהבים
TTITLE4=סתם אחד
TTITLE5=קטע קשה
TTITLE6=רצף כלשהו בבלוז מעורב זעירא
TTITLE7=קוצים ב'
TTITLE8=מים מתוקים
TTITLE9=תקציר שירי החורף הבא
EXTD=YEAR: 1993
EXTT0=
EXTT1=
EXTT2=
EXTT3=
EXTT4=
EXTT5=
EXTT6=
EXTT7=
EXTT8=
EXTT9=
PLAYORDER=
